<?xml version="1.0" encoding="UTF-8"?>
<svg version="1.1" xmlns="http://www.w3.org/2000/svg" width="64" height="64">
<path d="M0 0 C21.12 0 42.24 0 64 0 C64 21.12 64 42.24 64 64 C42.88 64 21.76 64 0 64 C0 42.88 0 21.76 0 0 Z " fill="#FEFDFE" transform="translate(0,0)"/>
<path d="M0 0 C0.74958984 0.00451172 1.49917969 0.00902344 2.27148438 0.01367188 C4.11852383 0.02543646 5.96552213 0.04337135 7.8125 0.0625 C8.19468767 1.71864657 8.52645102 3.38707024 8.8125 5.0625 C7.8125 6.0625 7.8125 6.0625 5.52734375 6.16015625 C4.15255859 6.14275391 4.15255859 6.14275391 2.75 6.125 C1.83089844 6.11597656 0.91179688 6.10695313 -0.03515625 6.09765625 C-0.74542969 6.08605469 -1.45570312 6.07445312 -2.1875 6.0625 C-2.1875 6.7225 -2.1875 7.3825 -2.1875 8.0625 C3.6690039 7.73271629 7.82448477 7.34033858 12.8125 4.0625 C15.625 3.875 15.625 3.875 17.8125 4.0625 C18.3075 6.5375 18.3075 6.5375 18.8125 9.0625 C17.25288638 10.02552356 15.68966775 10.98271004 14.125 11.9375 C12.81982422 12.73800781 12.81982422 12.73800781 11.48828125 13.5546875 C5.31497078 17.03337048 0.31830117 17.48540728 -6.6875 17.5625 C-8.09322266 17.624375 -8.09322266 17.624375 -9.52734375 17.6875 C-16.16043856 17.76276916 -16.16043856 17.76276916 -18.9921875 15.83203125 C-20.96026393 13.67367118 -22.14568737 11.83882116 -22.3046875 8.88671875 C-20.73751535 6.32773485 -18.91497807 5.34219416 -16.3125 3.875 C-15.42820312 3.36582031 -14.54390625 2.85664062 -13.6328125 2.33203125 C-9.04042941 -0.0521932 -5.05238074 -0.05736327 0 0 Z " fill="#BD89E8" transform="translate(31.1875,37.9375)"/>
<path d="M0 0 C4.21412236 0.51319523 6.35456091 2.85627087 9.3125 5.75 C10.66794922 7.04164062 10.66794922 7.04164062 12.05078125 8.359375 C14 11 14 11 14.0546875 13.5234375 C12.74959812 16.58798071 11.14168824 18.49509242 8.8125 20.875 C8.05582031 21.67679688 7.29914062 22.47859375 6.51953125 23.3046875 C4 25 4 25 0.81640625 24.94921875 C-2 24 -2 24 -3.875 20.9375 C-4.24625 19.968125 -4.6175 18.99875 -5 18 C-5.5775 18.515625 -6.155 19.03125 -6.75 19.5625 C-9 21 -9 21 -11.25 20.6875 C-11.8275 20.460625 -12.405 20.23375 -13 20 C-12.69762101 16.47224511 -11.97019149 14.96191135 -9.75 12.125 C-7 10 -7 10 -4.4375 10.1875 C-3.633125 10.455625 -2.82875 10.72375 -2 11 C-0.68 11 0.64 11 2 11 C2 9.68 2 8.36 2 7 C1.484375 6.505 0.96875 6.01 0.4375 5.5 C-0.036875 5.005 -0.51125 4.51 -1 4 C-0.6875 1.8125 -0.6875 1.8125 0 0 Z " fill="#BC87E8" transform="translate(33,9)"/>
<path d="M0 0 C2.9375 0.75 2.9375 0.75 4.9375 2.75 C4.75 6.25 4.75 6.25 3.9375 9.75 C0.9375 11.75 0.9375 11.75 -1.5625 11.5625 C-4.31637823 10.66748958 -5.53136237 10.21683286 -7.0625 7.75 C-6.9375 4.6875 -6.9375 4.6875 -6.0625 1.75 C-3.0625 -0.25 -3.0625 -0.25 0 0 Z " fill="#BF8CE9" transform="translate(50.0625,6.25)"/>
</svg>
